<svg width="19" height="20" viewBox="0 0 19 20" fill="none" xmlns="http://www.w3.org/2000/svg">
<path d="M9.81502 0.3125C4.7633 0.3125 0.670288 4.64844 0.670288 10C0.670288 15.3516 4.7633 19.6875 9.81502 19.6875C14.8668 19.6875 18.9598 15.3516 18.9598 10C18.9598 4.64844 14.8668 0.3125 9.81502 0.3125ZM13.2255 12.5391L12.488 13.5156C12.4396 13.5797 12.3798 13.6331 12.3119 13.6727C12.244 13.7123 12.1695 13.7373 12.0925 13.7464C12.0155 13.7555 11.9375 13.7484 11.8631 13.7255C11.7887 13.7027 11.7192 13.6646 11.6587 13.6133L9.18817 11.6711C9.01554 11.5247 8.87621 11.339 8.78047 11.1279C8.68473 10.9167 8.63503 10.6854 8.63506 10.4512V4.375C8.63506 4.20924 8.69722 4.05027 8.80786 3.93306C8.9185 3.81585 9.06857 3.75 9.22504 3.75H10.405C10.5615 3.75 10.7115 3.81585 10.8222 3.93306C10.9328 4.05027 10.995 4.20924 10.995 4.375V10L13.1337 11.6602C13.1942 11.7115 13.2446 11.7749 13.282 11.8468C13.3194 11.9188 13.343 11.9978 13.3515 12.0795C13.36 12.1611 13.3533 12.2437 13.3317 12.3225C13.3101 12.4014 13.274 12.475 13.2255 12.5391Z" fill="#A6A5B5"/>
</svg>
